<?xml version="1.0" encoding="UTF-8"?>
<svg version="1.1" xmlns="http://www.w3.org/2000/svg" width="128" height="128">
<path d="M0 0 C1.31387695 0.00193359 1.31387695 0.00193359 2.65429688 0.00390625 C9.15650615 0.09400615 9.15650615 0.09400615 11.4375 2.375 C12.70522861 6.68527728 12.51294524 10.92373111 12.4375 15.375 C13.345 15.49875 14.2525 15.6225 15.1875 15.75 C18.02720323 16.29609677 19.96340591 16.94763803 22.4375 18.375 C21.82551624 21.81450364 20.51691153 23.89064485 18.375 26.625 C17.82714844 27.33140625 17.27929688 28.0378125 16.71484375 28.765625 C16.29332031 29.29671875 15.87179688 29.8278125 15.4375 30.375 C14.73625 30.230625 14.035 30.08625 13.3125 29.9375 C0.92225379 27.51332139 -9.32639001 27.60740813 -20.20703125 34.625 C-27.75124109 40.22998509 -31.99022176 47.36630998 -34.5625 56.375 C-35.96272632 66.02989387 -33.70110903 75.49329993 -28.5 83.6875 C-22.64223738 91.40798211 -14.9034807 94.93252545 -5.5859375 96.98046875 C-0.78262547 97.60725753 3.67733029 97.12856919 8.4375 96.375 C9.54738281 96.22611328 9.54738281 96.22611328 10.6796875 96.07421875 C12.26834667 95.86048348 13.8535765 95.6213881 15.4375 95.375 C16.61294805 96.80532837 17.77760262 98.24453242 18.9375 99.6875 C19.91203125 100.88826172 19.91203125 100.88826172 20.90625 102.11328125 C22.4375 104.375 22.4375 104.375 22.4375 107.375 C15.8125 110.375 15.8125 110.375 12.4375 110.375 C12.47875 111.57125 12.52 112.7675 12.5625 114 C12.56925439 117.80272122 11.90597988 120.83337205 10.4375 124.375 C8.18748901 126.62501099 3.08255121 125.65448195 0.0625 125.6875 C-1.25234375 125.73100586 -1.25234375 125.73100586 -2.59375 125.77539062 C-8.97859649 125.83884858 -8.97859649 125.83884858 -11.65234375 123.71484375 C-12.76328511 120.85881854 -12.85923608 118.68361032 -12.75 115.625 C-12.70939453 114.14773437 -12.70939453 114.14773437 -12.66796875 112.640625 C-12.63316406 111.89296875 -12.59835938 111.1453125 -12.5625 110.375 C-13.408125 110.271875 -14.25375 110.16875 -15.125 110.0625 C-18.97692701 109.2921146 -22.00325031 108.01225486 -25.5625 106.375 C-26.08199219 106.8803125 -26.60148437 107.385625 -27.13671875 107.90625 C-27.83410156 108.5559375 -28.53148437 109.205625 -29.25 109.875 C-29.93449219 110.5246875 -30.61898437 111.174375 -31.32421875 111.84375 C-33.5625 113.375 -33.5625 113.375 -35.90234375 113.98046875 C-40.13175064 113.01782842 -42.47215054 110.2282953 -45.4375 107.1875 C-46.04335938 106.60935547 -46.64921875 106.03121094 -47.2734375 105.43554688 C-51.54058683 101.14415238 -51.54058683 101.14415238 -51.640625 97.6328125 C-50.49630084 95.23636552 -49.49270502 94.08644356 -47.4375 92.4375 C-45.8040408 90.96988943 -45.8040408 90.96988943 -44.5625 89.375 C-44.32799928 86.36000142 -44.32799928 86.36000142 -45.5625 83.375 C-45.93375 81.51875 -45.93375 81.51875 -46.3125 79.625 C-48.22873281 76.11736087 -48.22873281 76.11736087 -51.6171875 75.5234375 C-53.97898253 75.17717871 -56.35020209 74.88963314 -58.7265625 74.6640625 C-61.5625 74.375 -61.5625 74.375 -62.5625 73.375 C-62.64935603 71.81327255 -62.66952219 70.24770656 -62.66015625 68.68359375 C-62.65693359 67.73935547 -62.65371094 66.79511719 -62.65039062 65.82226562 C-62.64201172 64.82904297 -62.63363281 63.83582031 -62.625 62.8125 C-62.62048828 61.81541016 -62.61597656 60.81832031 -62.61132812 59.79101562 C-62.59950007 57.31895151 -62.58301849 54.84700482 -62.5625 52.375 C-58.84524027 51.24250152 -55.77909812 50.37867115 -51.875 50.3125 C-48.52525161 49.73441782 -48.52525161 49.73441782 -47.19921875 47.48828125 C-45.63106604 44.22803248 -44.61010511 41.37470734 -44.4375 37.75 C-45.89748812 34.66780286 -47.97870221 32.51966461 -50.3828125 30.12109375 C-51.5625 28.375 -51.5625 28.375 -51.29541016 26.4543457 C-50.07001641 22.97777058 -47.37376069 20.67406421 -44.8125 18.125 C-44.2865625 17.57070313 -43.760625 17.01640625 -43.21875 16.4453125 C-40.9042848 14.11938956 -39.1889288 12.51316909 -35.94140625 11.796875 C-32.92983779 12.52875042 -31.48878192 13.75005445 -29.25 15.875 C-28.55261719 16.5246875 -27.85523438 17.174375 -27.13671875 17.84375 C-26.61722656 18.3490625 -26.09773438 18.854375 -25.5625 19.375 C-24.95921875 19.08625 -24.3559375 18.7975 -23.734375 18.5 C-22.53554687 17.943125 -22.53554687 17.943125 -21.3125 17.375 C-20.52359375 17.00375 -19.7346875 16.6325 -18.921875 16.25 C-16.5625 15.375 -16.5625 15.375 -12.5625 15.375 C-12.61470703 14.25351562 -12.61470703 14.25351562 -12.66796875 13.109375 C-12.69503906 12.12453125 -12.72210938 11.1396875 -12.75 10.125 C-12.80220703 8.66320312 -12.80220703 8.66320312 -12.85546875 7.171875 C-12.5625 4.375 -12.5625 4.375 -11.6484375 2.0390625 C-8.16615107 -0.73894128 -4.30659341 -0.12095384 0 0 Z " fill="#E2A62E" transform="translate(81.5625,0.625)"/>
<path d="M0 0 C0.7031987 0.00565979 1.4063974 0.01131958 2.13090515 0.01715088 C4.36272123 0.03942731 6.59289336 0.08960127 8.82421875 0.140625 C10.34307566 0.16070157 11.86195791 0.17895032 13.38085938 0.1953125 C17.0916742 0.23926143 20.80153585 0.30822579 24.51171875 0.390625 C24.53861091 1.86969392 24.55806496 3.34889983 24.57421875 4.828125 C24.58582031 5.65183594 24.59742188 6.47554687 24.609375 7.32421875 C24.51171875 9.390625 24.51171875 9.390625 23.51171875 10.390625 C21.51389749 10.54887758 19.51083041 10.64181671 17.5078125 10.70703125 C15.68540039 10.76987305 15.68540039 10.76987305 13.82617188 10.83398438 C12.54677734 10.87330078 11.26738281 10.91261719 9.94921875 10.953125 C8.66595703 10.99630859 7.38269531 11.03949219 6.06054688 11.08398438 C2.87772022 11.190473 -0.30518799 11.29248462 -3.48828125 11.390625 C-4.49458988 14.40955089 -4.61726125 16.45358676 -4.62109375 19.609375 C-4.62238281 20.62386719 -4.62367187 21.63835938 -4.625 22.68359375 C-4.62113281 23.74191406 -4.61726563 24.80023438 -4.61328125 25.890625 C-4.61714844 26.94894531 -4.62101562 28.00726563 -4.625 29.09765625 C-4.62306641 30.61939453 -4.62306641 30.61939453 -4.62109375 32.171875 C-4.61996582 33.10064453 -4.61883789 34.02941406 -4.61767578 34.98632812 C-4.58685859 37.53620682 -4.58685859 37.53620682 -3.48828125 40.390625 C-2.67560791 40.41568115 -1.86293457 40.4407373 -1.02563477 40.46655273 C2.63282627 40.58211618 6.29100403 40.70502084 9.94921875 40.828125 C11.86831055 40.88709961 11.86831055 40.88709961 13.82617188 40.94726562 C15.64858398 41.01010742 15.64858398 41.01010742 17.5078125 41.07421875 C18.63372803 41.11087646 19.75964355 41.14753418 20.91967773 41.18530273 C23.51171875 41.390625 23.51171875 41.390625 24.51171875 42.390625 C24.58351839 43.90990538 24.59563882 45.43229982 24.57421875 46.953125 C24.56519531 47.77941406 24.55617187 48.60570312 24.546875 49.45703125 C24.53527344 50.09511719 24.52367187 50.73320313 24.51171875 51.390625 C20.06438576 51.51477748 15.61798615 51.60521957 11.16943359 51.6652832 C9.65818701 51.69033595 8.14706051 51.72438877 6.63623047 51.76782227 C4.45640374 51.8288919 2.27818613 51.85692416 0.09765625 51.87890625 C-1.8661499 51.91818237 -1.8661499 51.91818237 -3.86962891 51.95825195 C-8.68100446 51.20353274 -10.14527213 49.89896806 -13.48828125 46.390625 C-16.65262226 40.85772774 -15.82314905 34.28951064 -15.80395508 28.09838867 C-15.80079565 25.96285925 -15.8242792 23.82871781 -15.84960938 21.69335938 C-15.85188288 20.3229184 -15.85258563 18.95247373 -15.8515625 17.58203125 C-15.85454346 16.34654541 -15.85752441 15.11105957 -15.8605957 13.83813477 C-15.31591228 8.79454488 -13.73690734 5.7130067 -10.26879883 2.04003906 C-6.64509159 -0.10955845 -4.19705474 -0.06688533 0 0 Z " fill="#E3A62E" transform="translate(73.48828125,38.609375)"/>
</svg>
